<?xml version="1.0" standalone="no"?><!DOCTYPE svg PUBLIC "-//W3C//DTD SVG 1.1//EN" "http://www.w3.org/Graphics/SVG/1.1/DTD/svg11.dtd"><svg t="1774506564066" class="icon" viewBox="0 0 1024 1024" version="1.1" xmlns="http://www.w3.org/2000/svg" p-id="17098" xmlns:xlink="http://www.w3.org/1999/xlink" width="200" height="200"><path d="M512 768c-9.846154 0-19.692308-1.969231-29.538462-7.876923l-275.692307-157.538462C189.046154 592.738462 177.230769 573.046154 177.230769 551.384615V236.307692c0-21.661538 11.815385-41.353846 29.538462-51.2l275.692307-157.538461c17.723077-9.846154 39.384615-9.846154 59.076924 0l275.692307 157.538461c17.723077 9.846154 29.538462 29.538462 29.538462 51.2v315.076923c0 21.661538-11.815385 41.353846-29.538462 51.2l-275.692307 157.538462c-9.846154 5.907692-19.692308 7.876923-29.538462 7.876923z m0-708.923077c-3.938462 0-5.907692 0-9.846154 1.969231l-275.692308 157.538461c-5.907692 3.938462-9.846154 11.815385-9.846153 17.723077v315.076923c0 7.876923 3.938462 13.784615 9.846153 17.723077l275.692308 157.538462c5.907692 3.938462 13.784615 3.938462 19.692308 0l275.692308-157.538462c5.907692-3.938462 9.846154-9.846154 9.846153-17.723077V236.307692c0-7.876923-3.938462-13.784615-9.846153-17.723077l-275.692308-157.538461c-3.938462-1.969231-5.907692-1.969231-9.846154-1.969231z" p-id="17099"></path><path d="M512 1004.307692C240.246154 1004.307692 19.692308 838.892308 19.692308 636.061538c0-59.076923 19.692308-118.153846 55.138461-169.353846 5.907692-9.846154 17.723077-11.815385 27.569231-5.907692 9.846154 5.907692 11.815385 17.723077 5.907692 27.569231C74.830769 533.661538 59.076923 582.892308 59.076923 636.061538 59.076923 817.230769 261.907692 964.923077 512 964.923077s452.923077-147.692308 452.923077-328.861539c0-53.169231-17.723077-104.369231-51.2-151.630769-5.907692-7.876923-3.938462-21.661538 3.938461-27.569231 9.846154-5.907692 21.661538-3.938462 27.569231 3.938462 37.415385 53.169231 57.107692 112.246154 57.107693 173.292308C1004.307692 838.892308 783.753846 1004.307692 512 1004.307692z" p-id="17100"></path><path d="M512 756.184615c-11.815385 0-19.692308-7.876923-19.692308-19.692307v-354.461539c0-11.815385 7.876923-19.692308 19.692308-19.692307s19.692308 7.876923 19.692308 19.692307v354.461539c0 9.846154-7.876923 19.692308-19.692308 19.692307z" p-id="17101"></path><path d="M512 401.723077c-7.876923 0-13.784615-3.938462-17.723077-9.846154-3.938462-9.846154-1.969231-21.661538 7.876923-25.6l309.169231-155.569231c9.846154-3.938462 21.661538-1.969231 25.6 7.876923s1.969231 21.661538-7.876923 25.6l-309.169231 155.569231c-1.969231 0-3.938462 1.969231-7.876923 1.969231z" p-id="17102"></path><path d="M510.030769 401.723077c-3.938462 0-5.907692 0-7.876923-1.969231L192.984615 244.184615c-9.846154-3.938462-13.784615-17.723077-7.876923-25.6s15.753846-13.784615 25.6-7.876923l309.169231 155.569231c9.846154 3.938462 13.784615 17.723077 7.876923 25.6-3.938462 5.907692-11.815385 9.846154-17.723077 9.846154z" p-id="17103"></path></svg>