<?xml version="1.0" standalone="no"?><!DOCTYPE svg PUBLIC "-//W3C//DTD SVG 1.1//EN" "http://www.w3.org/Graphics/SVG/1.1/DTD/svg11.dtd"><svg t="1774504131863" class="icon" viewBox="0 0 1026 1024" version="1.1" xmlns="http://www.w3.org/2000/svg" p-id="10747" xmlns:xlink="http://www.w3.org/1999/xlink" width="200.390625" height="200"><path d="M118.88 393.44h-61.44v119.52h61.44v-119.52z m0 181.44h-61.44v119.52h61.44V574.88z m0-361.92h-61.44v119.52h61.44v-119.52z m725.28-61.44H905.6v-119.52h-120v61.44h61.44v58.08h-2.88z m-120-119.52h-119.52v61.44h119.52v-61.44z m120 304.32H905.6v-123.36h-61.44v123.36zM238.4 93.44h119.52v-61.44H238.4v61.44z m304.32-61.44h-119.52v61.44h119.52v-61.44zM238.4 880.16h119.52v-61.44H238.4v61.44z m-181.44-728.64h61.44v-58.08h61.44v-61.44h-123.36v119.52z m61.92 609.12h-61.44v119.52h119.52v-61.44h-58.08v-58.08zM993.92 458.72l-533.28 533.28-69.6-69.6 533.28-533.28 69.6 69.6z m-533.28-70.08L993.92 922.4l-69.6 69.6-533.28-533.28 69.6-70.08z" fill="#626262" p-id="10748"></path></svg>