<?xml version="1.0" standalone="no"?><!DOCTYPE svg PUBLIC "-//W3C//DTD SVG 1.1//EN" "http://www.w3.org/Graphics/SVG/1.1/DTD/svg11.dtd"><svg t="1776995143271" class="icon" viewBox="0 0 1024 1024" version="1.1" xmlns="http://www.w3.org/2000/svg" p-id="5302" xmlns:xlink="http://www.w3.org/1999/xlink" width="200" height="200"><path d="M505.6 230.4h32v249.6h-32z" p-id="5303"></path><path d="M240.448 688.064l485.056-417.536 20.864 24.256-485.056 417.536z" p-id="5304"></path><path d="M185.6 467.2h659.2v32h-659.2z" p-id="5305"></path><path d="M288.896 298.112l19.84-25.088 496.768 393.472-19.84 25.088z" p-id="5306"></path><path d="M416 825.6l-25.6-12.8 115.2-332.8 32 6.4z" p-id="5307"></path><path d="M627.2 819.2l-121.6-326.4 32-12.8 121.6 326.4z" p-id="5308"></path><path d="M403.2 800h236.8v32h-236.8z" p-id="5309"></path><path d="M620.48 801.728l151.296-138.048 21.568 23.68-151.296 137.984z" p-id="5310"></path><path d="M714.112 291.456l27.968-15.488 111.68 201.536-28.032 15.488z" p-id="5311"></path><path d="M509.376 225.408l10.368-30.272 217.984 74.688-10.368 30.272z" p-id="5312"></path><path d="M198.4 492.8l-32-19.2 121.6-198.4 25.6 19.2z" p-id="5313"></path><path d="M169.728 488.896l30.848-8.512 59.52 216-30.848 8.448z" p-id="5314"></path><path d="M524.8 480m-76.8 0a76.8 76.8 0 1 0 153.6 0 76.8 76.8 0 1 0-153.6 0Z" p-id="5315"></path><path d="M524.8 204.8m-76.8 0a76.8 76.8 0 1 0 153.6 0 76.8 76.8 0 1 0-153.6 0Z" p-id="5316"></path><path d="M736 275.2m-76.8 0a76.8 76.8 0 1 0 153.6 0 76.8 76.8 0 1 0-153.6 0Z" p-id="5317"></path><path d="M838.4 486.4m-76.8 0a76.8 76.8 0 1 0 153.6 0 76.8 76.8 0 1 0-153.6 0Z" p-id="5318"></path><path d="M793.6 678.4m-76.8 0a76.8 76.8 0 1 0 153.6 0 76.8 76.8 0 1 0-153.6 0Z" p-id="5319"></path><path d="M640 812.8m-76.8 0a76.8 76.8 0 1 0 153.6 0 76.8 76.8 0 1 0-153.6 0Z" p-id="5320"></path><path d="M403.2 819.2m-76.8 0a76.8 76.8 0 1 0 153.6 0 76.8 76.8 0 1 0-153.6 0Z" p-id="5321"></path><path d="M243.2 697.6m-76.8 0a76.8 76.8 0 1 0 153.6 0 76.8 76.8 0 1 0-153.6 0Z" p-id="5322"></path><path d="M185.6 486.4m-76.8 0a76.8 76.8 0 1 0 153.6 0 76.8 76.8 0 1 0-153.6 0Z" p-id="5323"></path><path d="M300.8 288m-76.8 0a76.8 76.8 0 1 0 153.6 0 76.8 76.8 0 1 0-153.6 0Z" p-id="5324"></path></svg>