<?xml version="1.0" standalone="no"?><!DOCTYPE svg PUBLIC "-//W3C//DTD SVG 1.1//EN" "http://www.w3.org/Graphics/SVG/1.1/DTD/svg11.dtd"><svg t="1774506547587" class="icon" viewBox="0 0 1024 1024" version="1.1" xmlns="http://www.w3.org/2000/svg" p-id="16950" xmlns:xlink="http://www.w3.org/1999/xlink" width="200" height="200"><path d="M643.2 515.2c-89.6-67.2-179.2-60.8-268.8 0-32 22.4-67.2 57.6-105.6 89.6 38.4 32 70.4 70.4 108.8 96 28.8 19.2 60.8 32 96 38.4 118.4 19.2 188.8-57.6 268.8-137.6-35.2-28.8-60.8-64-99.2-86.4zM508.8 704c-51.2 0-96-41.6-96-99.2s41.6-105.6 96-105.6 96 41.6 96 99.2c0 64-38.4 105.6-96 105.6z" p-id="16951"></path><path d="M515.2 544c-3.2 41.6 12.8 60.8 51.2 51.2 0 32-19.2 57.6-51.2 57.6s-57.6-22.4-51.2-57.6c-6.4-32 16-51.2 51.2-51.2" p-id="16952"></path><path d="M652.8 3.2c9.6-3.2 19.2-3.2 28.8 0 9.6 3.2 12.8 12.8 12.8 22.4v108.8c70.4 28.8 131.2 70.4 179.2 128 80 89.6 118.4 214.4 108.8 336-9.6 124.8-70.4 236.8-166.4 313.6-96 80-224 118.4-345.6 108.8-124.8-9.6-243.2-67.2-323.2-160S32 649.6 41.6 524.8c9.6-118.4 70.4-233.6 160-307.2 22.4-19.2 60.8-19.2 80 3.2 19.2 22.4 19.2 57.6-3.2 80-70.4 57.6-115.2 140.8-124.8 233.6s22.4 185.6 80 249.6c60.8 70.4 147.2 115.2 243.2 124.8 96 9.6 188.8-19.2 259.2-80s118.4-140.8 124.8-236.8c9.6-89.6-22.4-185.6-80-249.6-28.8-28.8-57.6-57.6-89.6-76.8v89.6c0 9.6-3.2 19.2-12.8 22.4-9.6 3.2-19.2 3.2-28.8 0l-227.2-160c-3.2-3.2-9.6-12.8-9.6-19.2 0-9.6 3.2-12.8 9.6-19.2L652.8 3.2z" p-id="16953"></path></svg>