<svg width="96" height="96" xmlns="http://www.w3.org/2000/svg" xmlns:xlink="http://www.w3.org/1999/xlink" overflow="hidden"><defs><clipPath id="clip0"><rect x="988" y="541" width="96" height="96"/></clipPath></defs><g clip-path="url(#clip0)" transform="translate(-988 -541)"><path d="M1049.9 603.4C1057.7 595.9 1058.1 583.5 1050.7 575.5 1058.6 579.6 1065.1 585.9 1068.9 590.1 1064.9 594 1058.1 599.8 1049.9 603.4ZM1010.6 582.8C1013.9 580 1017.4 577.6 1021.2 575.6 1013.9 583.6 1014.3 595.9 1022.1 603.4 1013.9 599.8 1007 594 1003.1 590.1 1005.4 587.5 1007.9 585.1 1010.6 582.8L1010.6 582.8ZM1036 605C1027.2 605 1020 597.8 1020 589 1020 580.2 1027.2 573 1036 573 1044.8 573 1052 580.2 1052 589 1052 597.8 1044.8 605 1036 605ZM1074.9 587.3C1069.1 580.5 1053.9 565 1036 565 1018.1 565 1002.9 580.5 997.1 587.3 995.6 589.1 995.7 591.6 997.3 593.3 1003.2 599.5 1018.3 613 1036 613 1053.7 613 1068.8 599.5 1074.8 593.3 1076.3 591.7 1076.4 589.1 1074.9 587.3Z"/><path d="M1046 589C1046 594.523 1041.52 599 1036 599 1030.48 599 1026 594.523 1026 589 1026 583.477 1030.48 579 1036 579 1041.52 579 1046 583.477 1046 589Z"/></g></svg>