<?xml version="1.0" standalone="no"?><!DOCTYPE svg PUBLIC "-//W3C//DTD SVG 1.1//EN" "http://www.w3.org/Graphics/SVG/1.1/DTD/svg11.dtd"><svg t="1774515391035" class="icon" viewBox="0 0 1170 1024" version="1.1" xmlns="http://www.w3.org/2000/svg" p-id="24960" xmlns:xlink="http://www.w3.org/1999/xlink" width="228.515625" height="200"><path d="M1133.714286 1024H36.571429a36.571429 36.571429 0 0 1-36.571429-36.571429V36.571429a36.571429 36.571429 0 0 1 36.571429-36.571429h402.285714a35.84 35.84 0 0 1 22.491428 8.448l0.365715-0.438857L634.550857 146.285714H1133.714286a36.571429 36.571429 0 0 1 36.571428 36.571429v804.571428a36.571429 36.571429 0 0 1-36.571428 36.571429z m-36.571429-73.142857V402.285714H73.142857v548.571429h1024zM621.714286 219.428571a35.84 35.84 0 0 1-22.491429-8.448l-0.365714 0.438858L426.020571 73.142857H73.142857v256h1024V219.428571H621.714286z" fill="#6EA3E5" p-id="24961"></path></svg>