<svg width="96" height="96" xmlns="http://www.w3.org/2000/svg" xmlns:xlink="http://www.w3.org/1999/xlink" overflow="hidden"><defs><clipPath id="clip0"><rect x="530" y="456" width="96" height="96"/></clipPath></defs><g clip-path="url(#clip0)" transform="translate(-530 -456)"><path d="M562 518C562 522.418 558.418 526 554 526 549.582 526 546 522.418 546 518 546 513.582 549.582 510 554 510 558.418 510 562 513.582 562 518Z"/><path d="M610 518C610 522.418 606.418 526 602 526 597.582 526 594 522.418 594 518 594 513.582 597.582 510 602 510 606.418 510 610 513.582 610 518Z"/><path d="M569 498 569 486 582.7 486C583.8 486 584.8 486.4 585.5 487.2L596.3 498 569 498ZM565 498 539.7 498 550.5 487.2C551.3 486.4 552.3 486 553.3 486L565 486 565 498ZM612 498 603.7 498C602.6 498 601.6 497.6 600.9 496.8L588.3 484.3C586.8 482.8 584.8 482 582.6 482L553.3 482C551.2 482 549.1 482.8 547.6 484.3L535.2 496.8C534.4 497.6 534 498.6 534 499.7L534 510C534 514.4 537.6 518 542 518L543 518C543 511.9 547.9 507 554 507 560.1 507 565 511.9 565 518L591 518C591 511.9 595.9 507 602 507 608.1 507 613 511.9 613 518L618 518C620.2 518 622 516.2 622 514L622 508C622 502.5 617.5 498 612 498Z"/></g></svg>