<?xml version="1.0" standalone="no"?><!DOCTYPE svg PUBLIC "-//W3C//DTD SVG 1.1//EN" "http://www.w3.org/Graphics/SVG/1.1/DTD/svg11.dtd"><svg t="1774515397030" class="icon" viewBox="0 0 1204 1024" version="1.1" xmlns="http://www.w3.org/2000/svg" p-id="25110" xmlns:xlink="http://www.w3.org/1999/xlink" width="235.15625" height="200"><path d="M1191.033675 413.696c11.745882 15.299765 16.203294 34.936471 12.288 54.211765l-100.412235 484.291764c-8.553412 41.200941-43.188706 71.198118-82.341647 71.378824-71.017412 0.301176-198.234353 0.421647-336.353882 0.421647-274.070588 0-591.028706-0.421647-595.666824-0.421647-25.359059 0-48.670118-10.902588-65.776941-30.599529l-4.096-4.577883 0.301176-0.602353A95.051294 95.051294 0 0 1 0.001205 930.635294V93.003294C0.001205 41.622588 39.876969 0 88.968734 0h363.218824c21.443765 0 43.188706 8.192 61.319529 22.889412 18.070588 14.637176 30.72 34.755765 35.599059 56.741647l19.877647 85.232941c0.602353 0.903529 2.168471 2.108235 3.011765 2.529882h491.158588c49.152 0 89.027765 41.622588 89.027765 92.943059v130.168471c15.179294 2.288941 28.973176 10.480941 38.851764 23.190588z m-47.826823-14.697412h0.481882-0.481882z m-662.889412-234.917647l-20.178824-86.738823a10.601412 10.601412 0 0 0-2.891294-3.493647 11.203765 11.203765 0 0 0-4.939294-2.590118H75.897675v665.178353l57.705412-295.634824c6.264471-29.816471 31.021176-50.597647 60.175059-50.597647h891.904V238.712471h-514.409412c-20.419765 0-40.237176-7.408941-57.524706-21.684706a96.617412 96.617412 0 0 1-33.430588-52.946824z m654.396235 285.153883H193.958852l-97.039059 514.710588H1037.855322l49.091765-260.336941 47.766588-254.373647z" fill="#38ADFF" p-id="25111"></path></svg>