<?xml version="1.0" standalone="no"?><!DOCTYPE svg PUBLIC "-//W3C//DTD SVG 1.1//EN" "http://www.w3.org/Graphics/SVG/1.1/DTD/svg11.dtd"><svg t="1774506488419" class="icon" viewBox="0 0 1024 1024" version="1.1" xmlns="http://www.w3.org/2000/svg" p-id="15921" xmlns:xlink="http://www.w3.org/1999/xlink" width="200" height="200"><path d="M358.4 179.2a25.6 25.6 0 0 0-25.6-25.6h-153.6a25.6 25.6 0 0 0-25.6 25.6v153.6a25.6 25.6 0 0 0 51.2 0V204.8h128a25.6 25.6 0 0 0 25.6-25.6z m307.2 0a25.6 25.6 0 0 1 25.6-25.6h153.6a25.6 25.6 0 0 1 25.6 25.6v153.6a25.6 25.6 0 0 1-51.2 0V204.8h-128a25.6 25.6 0 0 1-25.6-25.6z m25.6 691.2a25.6 25.6 0 0 1 0-51.2H819.2v-128a25.6 25.6 0 0 1 51.2 0v153.6a25.6 25.6 0 0 1-25.6 25.6h-153.6zM358.4 844.8a25.6 25.6 0 0 1-25.6 25.6h-153.6a25.6 25.6 0 0 1-25.6-25.6v-153.6a25.6 25.6 0 0 1 51.2 0V819.2h128a25.6 25.6 0 0 1 25.6 25.6z" fill="#42526E" p-id="15922"></path><path d="M511.744 343.04c-107.3664 0-210.7392 73.3696-245.504 176.64 34.816 103.2192 138.0864 176.64 245.504 176.64 106.9056 0 211.2512-73.4208 246.016-176.64-35.2768-103.2192-139.1104-176.64-246.016-176.64z m0 287.0272c-56.2688 0-102.2976-49.664-102.2976-110.3872 0-60.7232 46.0288-110.3872 102.2976-110.3872s102.2976 49.664 102.2976 110.3872c0 60.7232-46.0288 110.3872-102.2976 110.3872z m61.3888-110.3872c0 36.4032-27.648 66.2528-61.3888 66.2528-33.792 0-61.3888-29.8496-61.3888-66.2528 0-36.4544 27.648-66.2528 61.3888-66.2528 33.792 0 61.3888 29.7984 61.3888 66.2528z" fill="#42526E" opacity=".963" p-id="15923"></path></svg>