<?xml version="1.0" standalone="no"?><!DOCTYPE svg PUBLIC "-//W3C//DTD SVG 1.1//EN" "http://www.w3.org/Graphics/SVG/1.1/DTD/svg11.dtd"><svg t="1774512500069" class="icon" viewBox="0 0 1024 1024" version="1.1" xmlns="http://www.w3.org/2000/svg" p-id="17286" xmlns:xlink="http://www.w3.org/1999/xlink" width="200" height="200"><path d="M842.666667 938.666667H138.666667a53.393333 53.393333 0 0 1-53.333334-53.333334V181.333333a53.393333 53.393333 0 0 1 53.333334-53.333333h704a53.393333 53.393333 0 0 1 53.333333 53.333333v704a53.393333 53.393333 0 0 1-53.333333 53.333334z m-202.666667-42.666667h202.666667a10.666667 10.666667 0 0 0 10.666666-10.666667v-202.666666H640z m-256 0h213.333333v-213.333333H384z m-256-213.333333v202.666666a10.666667 10.666667 0 0 0 10.666667 10.666667h202.666666v-213.333333z m512-42.666667h213.333333V426.666667H640z m-256 0h213.333333V426.666667H384z m-256 0h213.333333V426.666667H128z m512-256h213.333333V181.333333a10.666667 10.666667 0 0 0-10.666666-10.666666H640z m-256 0h213.333333V170.666667H384z m-256 0h213.333333V170.666667H138.666667a10.666667 10.666667 0 0 0-10.666667 10.666666z" fill="#5C5C66" p-id="17287"></path></svg>